<svg width="24" height="25" viewBox="0 0 24 25" fill="none" xmlns="http://www.w3.org/2000/svg">
<path d="M19 8.25977C20.6569 8.25977 22 6.91662 22 5.25977C22 3.60291 20.6569 2.25977 19 2.25977C17.3431 2.25977 16 3.60291 16 5.25977C16 6.91662 17.3431 8.25977 19 8.25977Z" fill="#FA8E61"/>
<path opacity="0.4" d="M19 9.75977C16.52 9.75977 14.5 7.73977 14.5 5.25977C14.5 4.53977 14.69 3.86977 14.99 3.25977H7.52C4.07 3.25977 2 5.31977 2 8.77977V16.7298C2 20.1998 4.07 22.2598 7.52 22.2598H15.47C18.93 22.2598 20.99 20.1998 20.99 16.7398V9.26977C20.39 9.56977 19.72 9.75977 19 9.75977Z" fill="#FA8E61"/>
</svg>
